<svg preserveAspectRatio="none" overflow="visible" style="display: block;" width="375" height="19" viewBox="0 0 375 19" fill="none" xmlns="http://www.w3.org/2000/svg">
<g id="Group 289345">
<foreignObject x="-371.568" y="-371.568" width="1118.14" height="762.136"><div xmlns="http://www.w3.org/1999/xhtml" style="backdrop-filter:blur(185.78px);clip-path:url(#bgblur_0_0_7_clip_path);height:100%;width:100%"></div></foreignObject><path id="shadows_60" opacity="0.2" data-figma-bg-blur-radius="371.568" d="M0 9.5C0 4.2533 4.25329 0 9.5 0H365.5C370.747 0 375 4.2533 375 9.5C375 14.7467 370.747 19 365.5 19H9.5C4.2533 19 0 14.7467 0 9.5Z" fill="url(#paint0_linear_0_7)"/>
<path id="shadows_60_2" d="M1 9.5C1 5.35786 4.35786 2 8.5 2H76.5C80.6421 2 84 5.35786 84 9.5C84 13.6421 80.6421 17 76.5 17H8.5C4.35786 17 1 13.6421 1 9.5Z" fill="url(#paint1_linear_0_7)"/>
</g>
<defs>
<clipPath id="bgblur_0_0_7_clip_path" transform="translate(371.568 371.568)"><path d="M0 9.5C0 4.2533 4.25329 0 9.5 0H365.5C370.747 0 375 4.2533 375 9.5C375 14.7467 370.747 19 365.5 19H9.5C4.2533 19 0 14.7467 0 9.5Z"/>
</clipPath><linearGradient id="paint0_linear_0_7" x1="0" y1="9.51157" x2="375" y2="9.51151" gradientUnits="userSpaceOnUse">
<stop stop-color="#8423FF"/>
<stop offset="0.5" stop-color="#AE6EFF"/>
<stop offset="1" stop-color="#C292FF"/>
</linearGradient>
<linearGradient id="paint1_linear_0_7" x1="1" y1="9.50914" x2="84" y2="9.50913" gradientUnits="userSpaceOnUse">
<stop stop-color="#8423FF"/>
<stop offset="0.5" stop-color="#AE6EFF"/>
<stop offset="1" stop-color="#C292FF"/>
</linearGradient>
</defs>
</svg>
